

----------------------
ffmpeg -i C:\web//archive/data//0/0/s8wuba1g1k.wmv -r 25 -b 800k -g 100 -ar 22050 -ac 2    -y C:\web//content/entry/data/0/0/s8wuba1g1k_100000.flv  2>>"C:\web//content/entry/data/0/0/s8wuba1g1k_100000.flv.log"
----------------------



----------------------
 -r 25 -b 800k -g 100 -ar 22050 -ac 2    -y 
----------------------

FFmpeg version SVN-r15815, Copyright (c) 2000-2008 Fabrice Bellard, et al.
  configuration: --enable-memalign-hack --enable-postproc --enable-swscale --enable-gpl --enable-libfaac --enable-libfaad --enable-libgsm --enable-libmp3lame --enable-libvorbis --enable-libtheora --enable-libx264 --enable-libxvid --disable-ffserver --disable-vhook --enable-avisynth --enable-pthreads
  libavutil     49.12. 0 / 49.12. 0
  libavcodec    52. 3. 0 / 52. 3. 0
  libavformat   52.23. 1 / 52.23. 1
  libavdevice   52. 1. 0 / 52. 1. 0
  libswscale     0. 6. 1 /  0. 6. 1
  libpostproc   51. 2. 0 / 51. 2. 0
  built on Nov 13 2008 10:28:29, gcc: 4.2.4 (TDM-1 for MinGW)
[wmv3 @ 0x163ca70]Extra data: 8 bits left, value: 0

Seems stream 1 codec frame rate differs from container frame rate: 1000.00 (1000/1) -> 30.00 (30/1)
Input #0, asf, from 'C:\web//archive/data//0/0/s8wuba1g1k.wmv':
  Duration: 00:00:05.36, start: 1.579000, bitrate: 2488 kb/s
    Stream #0.0: Audio: wmav2, 44100 Hz, stereo, s16, 160 kb/s
    Stream #0.1: Video: wmv3, yuv420p, 640x480, 1900 kb/s, 30.00 tb(r)
Output #0, flv, to 'C:\web//content/entry/data/0/0/s8wuba1g1k_100000.flv':
    Stream #0.0: Video: flv, yuv420p, 640x480, q=2-31, 800 kb/s, 25.00 tb(c)
    Stream #0.1: Audio: libmp3lame, 22050 Hz, stereo, s16, 64 kb/s
Stream mapping:
  Stream #0.1 -> #0.0
  Stream #0.0 -> #0.1
[wmv3 @ 0x163ca70]Extra data: 8 bits left, value: 0
Press [q] to stop encoding
frame=   45 fps=  0 q=4.8 size=     277kB time=1.80 bitrate=1261.2kbits/s    frame=   89 fps= 85 q=4.7 size=     459kB time=3.53 bitrate=1066.7kbits/s    frame=  137 fps= 89 q=6.3 size=     731kB time=5.48 bitrate=1092.7kbits/s    [libmp3lame @ 0x16e6080]lame: output buffer too small (buffer index: 8150, free bytes: 490)
frame=  152 fps= 90 q=8.2 Lsize=     804kB time=6.08 bitrate=1083.7kbits/s    
video:748kB audio:50kB global headers:0kB muxing overhead 0.806857%
